<?xml version="1.0" standalone="no"?>
<svg xmlns="http://www.w3.org/2000/svg" version="1.1" width="684" height="684">
	<!-- Created with https://api.qrserver.com (QR Code API, see goQR.me/api for information) -->
	<title>QR Code</title>
	<desc>https://zenwaku.github.io/marcho-portfolio/?utm_source=qr&amp;utm_medium=print&amp;utm_campaign=portfolio_hiring</desc>
	<rect style="fill:rgb(255, 255, 255);fill-opacity:1" x="0" y="0" width="684" height="684" />
	<g id="elements">
		<path style="fill:rgb(0, 0, 0)" d="M 0,0 l 12,0 0,12 -12,0 z M 12,0 l 12,0 0,12 -12,0 z M 24,0 l 12,0 0,12 -12,0 z M 36,0 l 12,0 0,12 -12,0 z M 48,0 l 12,0 0,12 -12,0 z M 60,0 l 12,0 0,12 -12,0 z M 72,0 l 12,0 0,12 -12,0 z M 96,0 l 12,0 0,12 -12,0 z M 108,0 l 12,0 0,12 -12,0 z M 120,0 l 12,0 0,12 -12,0 z M 144,0 l 12,0 0,12 -12,0 z M 192,0 l 12,0 0,12 -12,0 z M 216,0 l 12,0 0,12 -12,0 z M 228,0 l 12,0 0,12 -12,0 z M 240,0 l 12,0 0,12 -12,0 z M 252,0 l 12,0 0,12 -12,0 z M 288,0 l 12,0 0,12 -12,0 z M 300,0 l 12,0 0,12 -12,0 z M 324,0 l 12,0 0,12 -12,0 z M 360,0 l 12,0 0,12 -12,0 z M 372,0 l 12,0 0,12 -12,0 z M 384,0 l 12,0 0,12 -12,0 z M 396,0 l 12,0 0,12 -12,0 z M 444,0 l 12,0 0,12 -12,0 z M 480,0 l 12,0 0,12 -12,0 z M 492,0 l 12,0 0,12 -12,0 z M 504,0 l 12,0 0,12 -12,0 z M 528,0 l 12,0 0,12 -12,0 z M 552,0 l 12,0 0,12 -12,0 z M 564,0 l 12,0 0,12 -12,0 z M 600,0 l 12,0 0,12 -12,0 z M 612,0 l 12,0 0,12 -12,0 z M 624,0 l 12,0 0,12 -12,0 z M 636,0 l 12,0 0,12 -12,0 z M 648,0 l 12,0 0,12 -12,0 z M 660,0 l 12,0 0,12 -12,0 z M 672,0 l 12,0 0,12 -12,0 z M 0,12 l 12,0 0,12 -12,0 z M 72,12 l 12,0 0,12 -12,0 z M 96,12 l 12,0 0,12 -12,0 z M 108,12 l 12,0 0,12 -12,0 z M 120,12 l 12,0 0,12 -12,0 z M 132,12 l 12,0 0,12 -12,0 z M 144,12 l 12,0 0,12 -12,0 z M 180,12 l 12,0 0,12 -12,0 z M 192,12 l 12,0 0,12 -12,0 z M 204,12 l 12,0 0,12 -12,0 z M 216,12 l 12,0 0,12 -12,0 z M 264,12 l 12,0 0,12 -12,0 z M 288,12 l 12,0 0,12 -12,0 z M 312,12 l 12,0 0,12 -12,0 z M 348,12 l 12,0 0,12 -12,0 z M 372,12 l 12,0 0,12 -12,0 z M 396,12 l 12,0 0,12 -12,0 z M 408,12 l 12,0 0,12 -12,0 z M 420,12 l 12,0 0,12 -12,0 z M 432,12 l 12,0 0,12 -12,0 z M 456,12 l 12,0 0,12 -12,0 z M 516,12 l 12,0 0,12 -12,0 z M 528,12 l 12,0 0,12 -12,0 z M 564,12 l 12,0 0,12 -12,0 z M 600,12 l 12,0 0,12 -12,0 z M 672,12 l 12,0 0,12 -12,0 z M 0,24 l 12,0 0,12 -12,0 z M 24,24 l 12,0 0,12 -12,0 z M 36,24 l 12,0 0,12 -12,0 z M 48,24 l 12,0 0,12 -12,0 z M 72,24 l 12,0 0,12 -12,0 z M 96,24 l 12,0 0,12 -12,0 z M 108,24 l 12,0 0,12 -12,0 z M 120,24 l 12,0 0,12 -12,0 z M 132,24 l 12,0 0,12 -12,0 z M 156,24 l 12,0 0,12 -12,0 z M 204,24 l 12,0 0,12 -12,0 z M 228,24 l 12,0 0,12 -12,0 z M 252,24 l 12,0 0,12 -12,0 z M 264,24 l 12,0 0,12 -12,0 z M 312,24 l 12,0 0,12 -12,0 z M 324,24 l 12,0 0,12 -12,0 z M 348,24 l 12,0 0,12 -12,0 z M 408,24 l 12,0 0,12 -12,0 z M 432,24 l 12,0 0,12 -12,0 z M 468,24 l 12,0 0,12 -12,0 z M 480,24 l 12,0 0,12 -12,0 z M 492,24 l 12,0 0,12 -12,0 z M 504,24 l 12,0 0,12 -12,0 z M 516,24 l 12,0 0,12 -12,0 z M 528,24 l 12,0 0,12 -12,0 z M 540,24 l 12,0 0,12 -12,0 z M 552,24 l 12,0 0,12 -12,0 z M 564,24 l 12,0 0,12 -12,0 z M 600,24 l 12,0 0,12 -12,0 z M 624,24 l 12,0 0,12 -12,0 z M 636,24 l 12,0 0,12 -12,0 z M 648,24 l 12,0 0,12 -12,0 z M 672,24 l 12,0 0,12 -12,0 z M 0,36 l 12,0 0,12 -12,0 z M 24,36 l 12,0 0,12 -12,0 z M 36,36 l 12,0 0,12 -12,0 z M 48,36 l 12,0 0,12 -12,0 z M 72,36 l 12,0 0,12 -12,0 z M 108,36 l 12,0 0,12 -12,0 z M 120,36 l 12,0 0,12 -12,0 z M 132,36 l 12,0 0,12 -12,0 z M 144,36 l 12,0 0,12 -12,0 z M 156,36 l 12,0 0,12 -12,0 z M 168,36 l 12,0 0,12 -12,0 z M 192,36 l 12,0 0,12 -12,0 z M 240,36 l 12,0 0,12 -12,0 z M 252,36 l 12,0 0,12 -12,0 z M 264,36 l 12,0 0,12 -12,0 z M 276,36 l 12,0 0,12 -12,0 z M 312,36 l 12,0 0,12 -12,0 z M 324,36 l 12,0 0,12 -12,0 z M 336,36 l 12,0 0,12 -12,0 z M 348,36 l 12,0 0,12 -12,0 z M 384,36 l 12,0 0,12 -12,0 z M 408,36 l 12,0 0,12 -12,0 z M 420,36 l 12,0 0,12 -12,0 z M 456,36 l 12,0 0,12 -12,0 z M 516,36 l 12,0 0,12 -12,0 z M 564,36 l 12,0 0,12 -12,0 z M 600,36 l 12,0 0,12 -12,0 z M 624,36 l 12,0 0,12 -12,0 z M 636,36 l 12,0 0,12 -12,0 z M 648,36 l 12,0 0,12 -12,0 z M 672,36 l 12,0 0,12 -12,0 z M 0,48 l 12,0 0,12 -12,0 z M 24,48 l 12,0 0,12 -12,0 z M 36,48 l 12,0 0,12 -12,0 z M 48,48 l 12,0 0,12 -12,0 z M 72,48 l 12,0 0,12 -12,0 z M 108,48 l 12,0 0,12 -12,0 z M 132,48 l 12,0 0,12 -12,0 z M 144,48 l 12,0 0,12 -12,0 z M 192,48 l 12,0 0,12 -12,0 z M 216,48 l 12,0 0,12 -12,0 z M 228,48 l 12,0 0,12 -12,0 z M 240,48 l 12,0 0,12 -12,0 z M 252,48 l 12,0 0,12 -12,0 z M 288,48 l 12,0 0,12 -12,0 z M 312,48 l 12,0 0,12 -12,0 z M 324,48 l 12,0 0,12 -12,0 z M 336,48 l 12,0 0,12 -12,0 z M 348,48 l 12,0 0,12 -12,0 z M 360,48 l 12,0 0,12 -12,0 z M 384,48 l 12,0 0,12 -12,0 z M 408,48 l 12,0 0,12 -12,0 z M 432,48 l 12,0 0,12 -12,0 z M 444,48 l 12,0 0,12 -12,0 z M 468,48 l 12,0 0,12 -12,0 z M 480,48 l 12,0 0,12 -12,0 z M 492,48 l 12,0 0,12 -12,0 z M 504,48 l 12,0 0,12 -12,0 z M 516,48 l 12,0 0,12 -12,0 z M 528,48 l 12,0 0,12 -12,0 z M 564,48 l 12,0 0,12 -12,0 z M 600,48 l 12,0 0,12 -12,0 z M 624,48 l 12,0 0,12 -12,0 z M 636,48 l 12,0 0,12 -12,0 z M 648,48 l 12,0 0,12 -12,0 z M 672,48 l 12,0 0,12 -12,0 z M 0,60 l 12,0 0,12 -12,0 z M 72,60 l 12,0 0,12 -12,0 z M 96,60 l 12,0 0,12 -12,0 z M 108,60 l 12,0 0,12 -12,0 z M 120,60 l 12,0 0,12 -12,0 z M 168,60 l 12,0 0,12 -12,0 z M 276,60 l 12,0 0,12 -12,0 z M 288,60 l 12,0 0,12 -12,0 z M 312,60 l 12,0 0,12 -12,0 z M 360,60 l 12,0 0,12 -12,0 z M 384,60 l 12,0 0,12 -12,0 z M 408,60 l 12,0 0,12 -12,0 z M 420,60 l 12,0 0,12 -12,0 z M 456,60 l 12,0 0,12 -12,0 z M 468,60 l 12,0 0,12 -12,0 z M 516,60 l 12,0 0,12 -12,0 z M 528,60 l 12,0 0,12 -12,0 z M 540,60 l 12,0 0,12 -12,0 z M 552,60 l 12,0 0,12 -12,0 z M 600,60 l 12,0 0,12 -12,0 z M 672,60 l 12,0 0,12 -12,0 z M 0,72 l 12,0 0,12 -12,0 z M 12,72 l 12,0 0,12 -12,0 z M 24,72 l 12,0 0,12 -12,0 z M 36,72 l 12,0 0,12 -12,0 z M 48,72 l 12,0 0,12 -12,0 z M 60,72 l 12,0 0,12 -12,0 z M 72,72 l 12,0 0,12 -12,0 z M 96,72 l 12,0 0,12 -12,0 z M 120,72 l 12,0 0,12 -12,0 z M 144,72 l 12,0 0,12 -12,0 z M 168,72 l 12,0 0,12 -12,0 z M 192,72 l 12,0 0,12 -12,0 z M 216,72 l 12,0 0,12 -12,0 z M 240,72 l 12,0 0,12 -12,0 z M 264,72 l 12,0 0,12 -12,0 z M 288,72 l 12,0 0,12 -12,0 z M 312,72 l 12,0 0,12 -12,0 z M 336,72 l 12,0 0,12 -12,0 z M 360,72 l 12,0 0,12 -12,0 z M 384,72 l 12,0 0,12 -12,0 z M 408,72 l 12,0 0,12 -12,0 z M 432,72 l 12,0 0,12 -12,0 z M 456,72 l 12,0 0,12 -12,0 z M 480,72 l 12,0 0,12 -12,0 z M 504,72 l 12,0 0,12 -12,0 z M 528,72 l 12,0 0,12 -12,0 z M 552,72 l 12,0 0,12 -12,0 z M 576,72 l 12,0 0,12 -12,0 z M 600,72 l 12,0 0,12 -12,0 z M 612,72 l 12,0 0,12 -12,0 z M 624,72 l 12,0 0,12 -12,0 z M 636,72 l 12,0 0,12 -12,0 z M 648,72 l 12,0 0,12 -12,0 z M 660,72 l 12,0 0,12 -12,0 z M 672,72 l 12,0 0,12 -12,0 z M 96,84 l 12,0 0,12 -12,0 z M 108,84 l 12,0 0,12 -12,0 z M 144,84 l 12,0 0,12 -12,0 z M 156,84 l 12,0 0,12 -12,0 z M 180,84 l 12,0 0,12 -12,0 z M 192,84 l 12,0 0,12 -12,0 z M 216,84 l 12,0 0,12 -12,0 z M 228,84 l 12,0 0,12 -12,0 z M 288,84 l 12,0 0,12 -12,0 z M 312,84 l 12,0 0,12 -12,0 z M 360,84 l 12,0 0,12 -12,0 z M 384,84 l 12,0 0,12 -12,0 z M 396,84 l 12,0 0,12 -12,0 z M 420,84 l 12,0 0,12 -12,0 z M 432,84 l 12,0 0,12 -12,0 z M 444,84 l 12,0 0,12 -12,0 z M 456,84 l 12,0 0,12 -12,0 z M 480,84 l 12,0 0,12 -12,0 z M 504,84 l 12,0 0,12 -12,0 z M 540,84 l 12,0 0,12 -12,0 z M 564,84 l 12,0 0,12 -12,0 z M 24,96 l 12,0 0,12 -12,0 z M 36,96 l 12,0 0,12 -12,0 z M 48,96 l 12,0 0,12 -12,0 z M 72,96 l 12,0 0,12 -12,0 z M 96,96 l 12,0 0,12 -12,0 z M 108,96 l 12,0 0,12 -12,0 z M 132,96 l 12,0 0,12 -12,0 z M 204,96 l 12,0 0,12 -12,0 z M 216,96 l 12,0 0,12 -12,0 z M 228,96 l 12,0 0,12 -12,0 z M 240,96 l 12,0 0,12 -12,0 z M 252,96 l 12,0 0,12 -12,0 z M 264,96 l 12,0 0,12 -12,0 z M 312,96 l 12,0 0,12 -12,0 z M 324,96 l 12,0 0,12 -12,0 z M 336,96 l 12,0 0,12 -12,0 z M 348,96 l 12,0 0,12 -12,0 z M 360,96 l 12,0 0,12 -12,0 z M 372,96 l 12,0 0,12 -12,0 z M 384,96 l 12,0 0,12 -12,0 z M 432,96 l 12,0 0,12 -12,0 z M 456,96 l 12,0 0,12 -12,0 z M 492,96 l 12,0 0,12 -12,0 z M 516,96 l 12,0 0,12 -12,0 z M 528,96 l 12,0 0,12 -12,0 z M 588,96 l 12,0 0,12 -12,0 z M 600,96 l 12,0 0,12 -12,0 z M 612,96 l 12,0 0,12 -12,0 z M 648,96 l 12,0 0,12 -12,0 z M 660,96 l 12,0 0,12 -12,0 z M 672,96 l 12,0 0,12 -12,0 z M 0,108 l 12,0 0,12 -12,0 z M 24,108 l 12,0 0,12 -12,0 z M 36,108 l 12,0 0,12 -12,0 z M 48,108 l 12,0 0,12 -12,0 z M 60,108 l 12,0 0,12 -12,0 z M 84,108 l 12,0 0,12 -12,0 z M 144,108 l 12,0 0,12 -12,0 z M 180,108 l 12,0 0,12 -12,0 z M 192,108 l 12,0 0,12 -12,0 z M 204,108 l 12,0 0,12 -12,0 z M 216,108 l 12,0 0,12 -12,0 z M 228,108 l 12,0 0,12 -12,0 z M 240,108 l 12,0 0,12 -12,0 z M 252,108 l 12,0 0,12 -12,0 z M 300,108 l 12,0 0,12 -12,0 z M 336,108 l 12,0 0,12 -12,0 z M 348,108 l 12,0 0,12 -12,0 z M 360,108 l 12,0 0,12 -12,0 z M 432,108 l 12,0 0,12 -12,0 z M 444,108 l 12,0 0,12 -12,0 z M 456,108 l 12,0 0,12 -12,0 z M 492,108 l 12,0 0,12 -12,0 z M 504,108 l 12,0 0,12 -12,0 z M 528,108 l 12,0 0,12 -12,0 z M 540,108 l 12,0 0,12 -12,0 z M 564,108 l 12,0 0,12 -12,0 z M 576,108 l 12,0 0,12 -12,0 z M 588,108 l 12,0 0,12 -12,0 z M 624,108 l 12,0 0,12 -12,0 z M 636,108 l 12,0 0,12 -12,0 z M 648,108 l 12,0 0,12 -12,0 z M 660,108 l 12,0 0,12 -12,0 z M 672,108 l 12,0 0,12 -12,0 z M 0,120 l 12,0 0,12 -12,0 z M 12,120 l 12,0 0,12 -12,0 z M 24,120 l 12,0 0,12 -12,0 z M 36,120 l 12,0 0,12 -12,0 z M 48,120 l 12,0 0,12 -12,0 z M 72,120 l 12,0 0,12 -12,0 z M 96,120 l 12,0 0,12 -12,0 z M 108,120 l 12,0 0,12 -12,0 z M 120,120 l 12,0 0,12 -12,0 z M 168,120 l 12,0 0,12 -12,0 z M 192,120 l 12,0 0,12 -12,0 z M 204,120 l 12,0 0,12 -12,0 z M 216,120 l 12,0 0,12 -12,0 z M 228,120 l 12,0 0,12 -12,0 z M 264,120 l 12,0 0,12 -12,0 z M 276,120 l 12,0 0,12 -12,0 z M 312,120 l 12,0 0,12 -12,0 z M 348,120 l 12,0 0,12 -12,0 z M 360,120 l 12,0 0,12 -12,0 z M 384,120 l 12,0 0,12 -12,0 z M 408,120 l 12,0 0,12 -12,0 z M 432,120 l 12,0 0,12 -12,0 z M 468,120 l 12,0 0,12 -12,0 z M 516,120 l 12,0 0,12 -12,0 z M 528,120 l 12,0 0,12 -12,0 z M 564,120 l 12,0 0,12 -12,0 z M 600,120 l 12,0 0,12 -12,0 z M 636,120 l 12,0 0,12 -12,0 z M 648,120 l 12,0 0,12 -12,0 z M 660,120 l 12,0 0,12 -12,0 z M 0,132 l 12,0 0,12 -12,0 z M 24,132 l 12,0 0,12 -12,0 z M 60,132 l 12,0 0,12 -12,0 z M 84,132 l 12,0 0,12 -12,0 z M 96,132 l 12,0 0,12 -12,0 z M 168,132 l 12,0 0,12 -12,0 z M 180,132 l 12,0 0,12 -12,0 z M 192,132 l 12,0 0,12 -12,0 z M 216,132 l 12,0 0,12 -12,0 z M 264,132 l 12,0 0,12 -12,0 z M 312,132 l 12,0 0,12 -12,0 z M 324,132 l 12,0 0,12 -12,0 z M 336,132 l 12,0 0,12 -12,0 z M 348,132 l 12,0 0,12 -12,0 z M 360,132 l 12,0 0,12 -12,0 z M 372,132 l 12,0 0,12 -12,0 z M 384,132 l 12,0 0,12 -12,0 z M 396,132 l 12,0 0,12 -12,0 z M 420,132 l 12,0 0,12 -12,0 z M 432,132 l 12,0 0,12 -12,0 z M 444,132 l 12,0 0,12 -12,0 z M 468,132 l 12,0 0,12 -12,0 z M 480,132 l 12,0 0,12 -12,0 z M 492,132 l 12,0 0,12 -12,0 z M 516,132 l 12,0 0,12 -12,0 z M 540,132 l 12,0 0,12 -12,0 z M 564,132 l 12,0 0,12 -12,0 z M 588,132 l 12,0 0,12 -12,0 z M 600,132 l 12,0 0,12 -12,0 z M 624,132 l 12,0 0,12 -12,0 z M 636,132 l 12,0 0,12 -12,0 z M 648,132 l 12,0 0,12 -12,0 z M 660,132 l 12,0 0,12 -12,0 z M 672,132 l 12,0 0,12 -12,0 z M 48,144 l 12,0 0,12 -12,0 z M 60,144 l 12,0 0,12 -12,0 z M 72,144 l 12,0 0,12 -12,0 z M 96,144 l 12,0 0,12 -12,0 z M 108,144 l 12,0 0,12 -12,0 z M 120,144 l 12,0 0,12 -12,0 z M 144,144 l 12,0 0,12 -12,0 z M 156,144 l 12,0 0,12 -12,0 z M 168,144 l 12,0 0,12 -12,0 z M 192,144 l 12,0 0,12 -12,0 z M 204,144 l 12,0 0,12 -12,0 z M 228,144 l 12,0 0,12 -12,0 z M 276,144 l 12,0 0,12 -12,0 z M 288,144 l 12,0 0,12 -12,0 z M 300,144 l 12,0 0,12 -12,0 z M 336,144 l 12,0 0,12 -12,0 z M 396,144 l 12,0 0,12 -12,0 z M 408,144 l 12,0 0,12 -12,0 z M 432,144 l 12,0 0,12 -12,0 z M 444,144 l 12,0 0,12 -12,0 z M 456,144 l 12,0 0,12 -12,0 z M 492,144 l 12,0 0,12 -12,0 z M 504,144 l 12,0 0,12 -12,0 z M 516,144 l 12,0 0,12 -12,0 z M 552,144 l 12,0 0,12 -12,0 z M 588,144 l 12,0 0,12 -12,0 z M 600,144 l 12,0 0,12 -12,0 z M 636,144 l 12,0 0,12 -12,0 z M 660,144 l 12,0 0,12 -12,0 z M 672,144 l 12,0 0,12 -12,0 z M 0,156 l 12,0 0,12 -12,0 z M 24,156 l 12,0 0,12 -12,0 z M 48,156 l 12,0 0,12 -12,0 z M 84,156 l 12,0 0,12 -12,0 z M 144,156 l 12,0 0,12 -12,0 z M 168,156 l 12,0 0,12 -12,0 z M 240,156 l 12,0 0,12 -12,0 z M 252,156 l 12,0 0,12 -12,0 z M 264,156 l 12,0 0,12 -12,0 z M 276,156 l 12,0 0,12 -12,0 z M 288,156 l 12,0 0,12 -12,0 z M 324,156 l 12,0 0,12 -12,0 z M 348,156 l 12,0 0,12 -12,0 z M 420,156 l 12,0 0,12 -12,0 z M 444,156 l 12,0 0,12 -12,0 z M 504,156 l 12,0 0,12 -12,0 z M 516,156 l 12,0 0,12 -12,0 z M 528,156 l 12,0 0,12 -12,0 z M 540,156 l 12,0 0,12 -12,0 z M 564,156 l 12,0 0,12 -12,0 z M 576,156 l 12,0 0,12 -12,0 z M 612,156 l 12,0 0,12 -12,0 z M 636,156 l 12,0 0,12 -12,0 z M 648,156 l 12,0 0,12 -12,0 z M 672,156 l 12,0 0,12 -12,0 z M 12,168 l 12,0 0,12 -12,0 z M 36,168 l 12,0 0,12 -12,0 z M 48,168 l 12,0 0,12 -12,0 z M 60,168 l 12,0 0,12 -12,0 z M 72,168 l 12,0 0,12 -12,0 z M 108,168 l 12,0 0,12 -12,0 z M 120,168 l 12,0 0,12 -12,0 z M 156,168 l 12,0 0,12 -12,0 z M 180,168 l 12,0 0,12 -12,0 z M 192,168 l 12,0 0,12 -12,0 z M 216,168 l 12,0 0,12 -12,0 z M 228,168 l 12,0 0,12 -12,0 z M 264,168 l 12,0 0,12 -12,0 z M 300,168 l 12,0 0,12 -12,0 z M 324,168 l 12,0 0,12 -12,0 z M 336,168 l 12,0 0,12 -12,0 z M 348,168 l 12,0 0,12 -12,0 z M 372,168 l 12,0 0,12 -12,0 z M 384,168 l 12,0 0,12 -12,0 z M 408,168 l 12,0 0,12 -12,0 z M 432,168 l 12,0 0,12 -12,0 z M 456,168 l 12,0 0,12 -12,0 z M 468,168 l 12,0 0,12 -12,0 z M 480,168 l 12,0 0,12 -12,0 z M 492,168 l 12,0 0,12 -12,0 z M 516,168 l 12,0 0,12 -12,0 z M 528,168 l 12,0 0,12 -12,0 z M 552,168 l 12,0 0,12 -12,0 z M 564,168 l 12,0 0,12 -12,0 z M 576,168 l 12,0 0,12 -12,0 z M 600,168 l 12,0 0,12 -12,0 z M 648,168 l 12,0 0,12 -12,0 z M 660,168 l 12,0 0,12 -12,0 z M 12,180 l 12,0 0,12 -12,0 z M 24,180 l 12,0 0,12 -12,0 z M 36,180 l 12,0 0,12 -12,0 z M 48,180 l 12,0 0,12 -12,0 z M 60,180 l 12,0 0,12 -12,0 z M 120,180 l 12,0 0,12 -12,0 z M 132,180 l 12,0 0,12 -12,0 z M 156,180 l 12,0 0,12 -12,0 z M 192,180 l 12,0 0,12 -12,0 z M 252,180 l 12,0 0,12 -12,0 z M 276,180 l 12,0 0,12 -12,0 z M 300,180 l 12,0 0,12 -12,0 z M 360,180 l 12,0 0,12 -12,0 z M 372,180 l 12,0 0,12 -12,0 z M 384,180 l 12,0 0,12 -12,0 z M 420,180 l 12,0 0,12 -12,0 z M 444,180 l 12,0 0,12 -12,0 z M 456,180 l 12,0 0,12 -12,0 z M 468,180 l 12,0 0,12 -12,0 z M 480,180 l 12,0 0,12 -12,0 z M 504,180 l 12,0 0,12 -12,0 z M 516,180 l 12,0 0,12 -12,0 z M 528,180 l 12,0 0,12 -12,0 z M 540,180 l 12,0 0,12 -12,0 z M 552,180 l 12,0 0,12 -12,0 z M 564,180 l 12,0 0,12 -12,0 z M 576,180 l 12,0 0,12 -12,0 z M 588,180 l 12,0 0,12 -12,0 z M 600,180 l 12,0 0,12 -12,0 z M 612,180 l 12,0 0,12 -12,0 z M 648,180 l 12,0 0,12 -12,0 z M 672,180 l 12,0 0,12 -12,0 z M 0,192 l 12,0 0,12 -12,0 z M 12,192 l 12,0 0,12 -12,0 z M 24,192 l 12,0 0,12 -12,0 z M 36,192 l 12,0 0,12 -12,0 z M 60,192 l 12,0 0,12 -12,0 z M 72,192 l 12,0 0,12 -12,0 z M 84,192 l 12,0 0,12 -12,0 z M 108,192 l 12,0 0,12 -12,0 z M 240,192 l 12,0 0,12 -12,0 z M 252,192 l 12,0 0,12 -12,0 z M 276,192 l 12,0 0,12 -12,0 z M 288,192 l 12,0 0,12 -12,0 z M 300,192 l 12,0 0,12 -12,0 z M 336,192 l 12,0 0,12 -12,0 z M 360,192 l 12,0 0,12 -12,0 z M 396,192 l 12,0 0,12 -12,0 z M 408,192 l 12,0 0,12 -12,0 z M 432,192 l 12,0 0,12 -12,0 z M 444,192 l 12,0 0,12 -12,0 z M 504,192 l 12,0 0,12 -12,0 z M 516,192 l 12,0 0,12 -12,0 z M 540,192 l 12,0 0,12 -12,0 z M 588,192 l 12,0 0,12 -12,0 z M 624,192 l 12,0 0,12 -12,0 z M 0,204 l 12,0 0,12 -12,0 z M 24,204 l 12,0 0,12 -12,0 z M 36,204 l 12,0 0,12 -12,0 z M 48,204 l 12,0 0,12 -12,0 z M 108,204 l 12,0 0,12 -12,0 z M 144,204 l 12,0 0,12 -12,0 z M 180,204 l 12,0 0,12 -12,0 z M 192,204 l 12,0 0,12 -12,0 z M 204,204 l 12,0 0,12 -12,0 z M 228,204 l 12,0 0,12 -12,0 z M 252,204 l 12,0 0,12 -12,0 z M 324,204 l 12,0 0,12 -12,0 z M 348,204 l 12,0 0,12 -12,0 z M 384,204 l 12,0 0,12 -12,0 z M 396,204 l 12,0 0,12 -12,0 z M 408,204 l 12,0 0,12 -12,0 z M 420,204 l 12,0 0,12 -12,0 z M 432,204 l 12,0 0,12 -12,0 z M 444,204 l 12,0 0,12 -12,0 z M 480,204 l 12,0 0,12 -12,0 z M 492,204 l 12,0 0,12 -12,0 z M 504,204 l 12,0 0,12 -12,0 z M 516,204 l 12,0 0,12 -12,0 z M 564,204 l 12,0 0,12 -12,0 z M 576,204 l 12,0 0,12 -12,0 z M 588,204 l 12,0 0,12 -12,0 z M 612,204 l 12,0 0,12 -12,0 z M 624,204 l 12,0 0,12 -12,0 z M 648,204 l 12,0 0,12 -12,0 z M 660,204 l 12,0 0,12 -12,0 z M 672,204 l 12,0 0,12 -12,0 z M 0,216 l 12,0 0,12 -12,0 z M 12,216 l 12,0 0,12 -12,0 z M 24,216 l 12,0 0,12 -12,0 z M 48,216 l 12,0 0,12 -12,0 z M 72,216 l 12,0 0,12 -12,0 z M 84,216 l 12,0 0,12 -12,0 z M 96,216 l 12,0 0,12 -12,0 z M 120,216 l 12,0 0,12 -12,0 z M 144,216 l 12,0 0,12 -12,0 z M 180,216 l 12,0 0,12 -12,0 z M 228,216 l 12,0 0,12 -12,0 z M 240,216 l 12,0 0,12 -12,0 z M 300,216 l 12,0 0,12 -12,0 z M 312,216 l 12,0 0,12 -12,0 z M 384,216 l 12,0 0,12 -12,0 z M 396,216 l 12,0 0,12 -12,0 z M 408,216 l 12,0 0,12 -12,0 z M 420,216 l 12,0 0,12 -12,0 z M 432,216 l 12,0 0,12 -12,0 z M 456,216 l 12,0 0,12 -12,0 z M 480,216 l 12,0 0,12 -12,0 z M 516,216 l 12,0 0,12 -12,0 z M 528,216 l 12,0 0,12 -12,0 z M 552,216 l 12,0 0,12 -12,0 z M 564,216 l 12,0 0,12 -12,0 z M 588,216 l 12,0 0,12 -12,0 z M 624,216 l 12,0 0,12 -12,0 z M 648,216 l 12,0 0,12 -12,0 z M 660,216 l 12,0 0,12 -12,0 z M 24,228 l 12,0 0,12 -12,0 z M 48,228 l 12,0 0,12 -12,0 z M 60,228 l 12,0 0,12 -12,0 z M 84,228 l 12,0 0,12 -12,0 z M 144,228 l 12,0 0,12 -12,0 z M 156,228 l 12,0 0,12 -12,0 z M 168,228 l 12,0 0,12 -12,0 z M 180,228 l 12,0 0,12 -12,0 z M 204,228 l 12,0 0,12 -12,0 z M 216,228 l 12,0 0,12 -12,0 z M 240,228 l 12,0 0,12 -12,0 z M 252,228 l 12,0 0,12 -12,0 z M 264,228 l 12,0 0,12 -12,0 z M 276,228 l 12,0 0,12 -12,0 z M 288,228 l 12,0 0,12 -12,0 z M 360,228 l 12,0 0,12 -12,0 z M 372,228 l 12,0 0,12 -12,0 z M 384,228 l 12,0 0,12 -12,0 z M 408,228 l 12,0 0,12 -12,0 z M 420,228 l 12,0 0,12 -12,0 z M 444,228 l 12,0 0,12 -12,0 z M 456,228 l 12,0 0,12 -12,0 z M 480,228 l 12,0 0,12 -12,0 z M 492,228 l 12,0 0,12 -12,0 z M 528,228 l 12,0 0,12 -12,0 z M 552,228 l 12,0 0,12 -12,0 z M 576,228 l 12,0 0,12 -12,0 z M 588,228 l 12,0 0,12 -12,0 z M 600,228 l 12,0 0,12 -12,0 z M 624,228 l 12,0 0,12 -12,0 z M 636,228 l 12,0 0,12 -12,0 z M 648,228 l 12,0 0,12 -12,0 z M 660,228 l 12,0 0,12 -12,0 z M 672,228 l 12,0 0,12 -12,0 z M 12,240 l 12,0 0,12 -12,0 z M 48,240 l 12,0 0,12 -12,0 z M 72,240 l 12,0 0,12 -12,0 z M 84,240 l 12,0 0,12 -12,0 z M 96,240 l 12,0 0,12 -12,0 z M 156,240 l 12,0 0,12 -12,0 z M 228,240 l 12,0 0,12 -12,0 z M 240,240 l 12,0 0,12 -12,0 z M 252,240 l 12,0 0,12 -12,0 z M 264,240 l 12,0 0,12 -12,0 z M 276,240 l 12,0 0,12 -12,0 z M 348,240 l 12,0 0,12 -12,0 z M 360,240 l 12,0 0,12 -12,0 z M 420,240 l 12,0 0,12 -12,0 z M 432,240 l 12,0 0,12 -12,0 z M 444,240 l 12,0 0,12 -12,0 z M 456,240 l 12,0 0,12 -12,0 z M 492,240 l 12,0 0,12 -12,0 z M 516,240 l 12,0 0,12 -12,0 z M 552,240 l 12,0 0,12 -12,0 z M 588,240 l 12,0 0,12 -12,0 z M 600,240 l 12,0 0,12 -12,0 z M 672,240 l 12,0 0,12 -12,0 z M 0,252 l 12,0 0,12 -12,0 z M 12,252 l 12,0 0,12 -12,0 z M 60,252 l 12,0 0,12 -12,0 z M 132,252 l 12,0 0,12 -12,0 z M 144,252 l 12,0 0,12 -12,0 z M 156,252 l 12,0 0,12 -12,0 z M 228,252 l 12,0 0,12 -12,0 z M 240,252 l 12,0 0,12 -12,0 z M 264,252 l 12,0 0,12 -12,0 z M 276,252 l 12,0 0,12 -12,0 z M 288,252 l 12,0 0,12 -12,0 z M 300,252 l 12,0 0,12 -12,0 z M 360,252 l 12,0 0,12 -12,0 z M 384,252 l 12,0 0,12 -12,0 z M 408,252 l 12,0 0,12 -12,0 z M 420,252 l 12,0 0,12 -12,0 z M 468,252 l 12,0 0,12 -12,0 z M 480,252 l 12,0 0,12 -12,0 z M 492,252 l 12,0 0,12 -12,0 z M 504,252 l 12,0 0,12 -12,0 z M 516,252 l 12,0 0,12 -12,0 z M 564,252 l 12,0 0,12 -12,0 z M 576,252 l 12,0 0,12 -12,0 z M 588,252 l 12,0 0,12 -12,0 z M 612,252 l 12,0 0,12 -12,0 z M 624,252 l 12,0 0,12 -12,0 z M 636,252 l 12,0 0,12 -12,0 z M 672,252 l 12,0 0,12 -12,0 z M 12,264 l 12,0 0,12 -12,0 z M 24,264 l 12,0 0,12 -12,0 z M 36,264 l 12,0 0,12 -12,0 z M 48,264 l 12,0 0,12 -12,0 z M 72,264 l 12,0 0,12 -12,0 z M 84,264 l 12,0 0,12 -12,0 z M 156,264 l 12,0 0,12 -12,0 z M 168,264 l 12,0 0,12 -12,0 z M 180,264 l 12,0 0,12 -12,0 z M 192,264 l 12,0 0,12 -12,0 z M 216,264 l 12,0 0,12 -12,0 z M 228,264 l 12,0 0,12 -12,0 z M 240,264 l 12,0 0,12 -12,0 z M 252,264 l 12,0 0,12 -12,0 z M 276,264 l 12,0 0,12 -12,0 z M 300,264 l 12,0 0,12 -12,0 z M 312,264 l 12,0 0,12 -12,0 z M 324,264 l 12,0 0,12 -12,0 z M 336,264 l 12,0 0,12 -12,0 z M 360,264 l 12,0 0,12 -12,0 z M 372,264 l 12,0 0,12 -12,0 z M 384,264 l 12,0 0,12 -12,0 z M 396,264 l 12,0 0,12 -12,0 z M 408,264 l 12,0 0,12 -12,0 z M 420,264 l 12,0 0,12 -12,0 z M 456,264 l 12,0 0,12 -12,0 z M 480,264 l 12,0 0,12 -12,0 z M 516,264 l 12,0 0,12 -12,0 z M 552,264 l 12,0 0,12 -12,0 z M 576,264 l 12,0 0,12 -12,0 z M 600,264 l 12,0 0,12 -12,0 z M 612,264 l 12,0 0,12 -12,0 z M 660,264 l 12,0 0,12 -12,0 z M 12,276 l 12,0 0,12 -12,0 z M 36,276 l 12,0 0,12 -12,0 z M 48,276 l 12,0 0,12 -12,0 z M 60,276 l 12,0 0,12 -12,0 z M 84,276 l 12,0 0,12 -12,0 z M 96,276 l 12,0 0,12 -12,0 z M 120,276 l 12,0 0,12 -12,0 z M 144,276 l 12,0 0,12 -12,0 z M 180,276 l 12,0 0,12 -12,0 z M 192,276 l 12,0 0,12 -12,0 z M 216,276 l 12,0 0,12 -12,0 z M 228,276 l 12,0 0,12 -12,0 z M 276,276 l 12,0 0,12 -12,0 z M 288,276 l 12,0 0,12 -12,0 z M 324,276 l 12,0 0,12 -12,0 z M 336,276 l 12,0 0,12 -12,0 z M 360,276 l 12,0 0,12 -12,0 z M 384,276 l 12,0 0,12 -12,0 z M 504,276 l 12,0 0,12 -12,0 z M 528,276 l 12,0 0,12 -12,0 z M 552,276 l 12,0 0,12 -12,0 z M 576,276 l 12,0 0,12 -12,0 z M 588,276 l 12,0 0,12 -12,0 z M 624,276 l 12,0 0,12 -12,0 z M 636,276 l 12,0 0,12 -12,0 z M 0,288 l 12,0 0,12 -12,0 z M 48,288 l 12,0 0,12 -12,0 z M 72,288 l 12,0 0,12 -12,0 z M 120,288 l 12,0 0,12 -12,0 z M 144,288 l 12,0 0,12 -12,0 z M 156,288 l 12,0 0,12 -12,0 z M 180,288 l 12,0 0,12 -12,0 z M 192,288 l 12,0 0,12 -12,0 z M 216,288 l 12,0 0,12 -12,0 z M 228,288 l 12,0 0,12 -12,0 z M 252,288 l 12,0 0,12 -12,0 z M 276,288 l 12,0 0,12 -12,0 z M 288,288 l 12,0 0,12 -12,0 z M 300,288 l 12,0 0,12 -12,0 z M 336,288 l 12,0 0,12 -12,0 z M 348,288 l 12,0 0,12 -12,0 z M 372,288 l 12,0 0,12 -12,0 z M 384,288 l 12,0 0,12 -12,0 z M 396,288 l 12,0 0,12 -12,0 z M 408,288 l 12,0 0,12 -12,0 z M 420,288 l 12,0 0,12 -12,0 z M 456,288 l 12,0 0,12 -12,0 z M 468,288 l 12,0 0,12 -12,0 z M 492,288 l 12,0 0,12 -12,0 z M 504,288 l 12,0 0,12 -12,0 z M 516,288 l 12,0 0,12 -12,0 z M 552,288 l 12,0 0,12 -12,0 z M 648,288 l 12,0 0,12 -12,0 z M 48,300 l 12,0 0,12 -12,0 z M 60,300 l 12,0 0,12 -12,0 z M 84,300 l 12,0 0,12 -12,0 z M 96,300 l 12,0 0,12 -12,0 z M 108,300 l 12,0 0,12 -12,0 z M 132,300 l 12,0 0,12 -12,0 z M 168,300 l 12,0 0,12 -12,0 z M 180,300 l 12,0 0,12 -12,0 z M 192,300 l 12,0 0,12 -12,0 z M 204,300 l 12,0 0,12 -12,0 z M 216,300 l 12,0 0,12 -12,0 z M 240,300 l 12,0 0,12 -12,0 z M 288,300 l 12,0 0,12 -12,0 z M 396,300 l 12,0 0,12 -12,0 z M 420,300 l 12,0 0,12 -12,0 z M 504,300 l 12,0 0,12 -12,0 z M 528,300 l 12,0 0,12 -12,0 z M 564,300 l 12,0 0,12 -12,0 z M 576,300 l 12,0 0,12 -12,0 z M 588,300 l 12,0 0,12 -12,0 z M 36,312 l 12,0 0,12 -12,0 z M 48,312 l 12,0 0,12 -12,0 z M 60,312 l 12,0 0,12 -12,0 z M 72,312 l 12,0 0,12 -12,0 z M 84,312 l 12,0 0,12 -12,0 z M 96,312 l 12,0 0,12 -12,0 z M 120,312 l 12,0 0,12 -12,0 z M 168,312 l 12,0 0,12 -12,0 z M 204,312 l 12,0 0,12 -12,0 z M 228,312 l 12,0 0,12 -12,0 z M 240,312 l 12,0 0,12 -12,0 z M 252,312 l 12,0 0,12 -12,0 z M 276,312 l 12,0 0,12 -12,0 z M 312,312 l 12,0 0,12 -12,0 z M 324,312 l 12,0 0,12 -12,0 z M 336,312 l 12,0 0,12 -12,0 z M 348,312 l 12,0 0,12 -12,0 z M 360,312 l 12,0 0,12 -12,0 z M 372,312 l 12,0 0,12 -12,0 z M 384,312 l 12,0 0,12 -12,0 z M 408,312 l 12,0 0,12 -12,0 z M 456,312 l 12,0 0,12 -12,0 z M 468,312 l 12,0 0,12 -12,0 z M 492,312 l 12,0 0,12 -12,0 z M 504,312 l 12,0 0,12 -12,0 z M 552,312 l 12,0 0,12 -12,0 z M 576,312 l 12,0 0,12 -12,0 z M 588,312 l 12,0 0,12 -12,0 z M 600,312 l 12,0 0,12 -12,0 z M 612,312 l 12,0 0,12 -12,0 z M 624,312 l 12,0 0,12 -12,0 z M 648,312 l 12,0 0,12 -12,0 z M 0,324 l 12,0 0,12 -12,0 z M 12,324 l 12,0 0,12 -12,0 z M 24,324 l 12,0 0,12 -12,0 z M 36,324 l 12,0 0,12 -12,0 z M 48,324 l 12,0 0,12 -12,0 z M 96,324 l 12,0 0,12 -12,0 z M 108,324 l 12,0 0,12 -12,0 z M 120,324 l 12,0 0,12 -12,0 z M 144,324 l 12,0 0,12 -12,0 z M 168,324 l 12,0 0,12 -12,0 z M 204,324 l 12,0 0,12 -12,0 z M 216,324 l 12,0 0,12 -12,0 z M 228,324 l 12,0 0,12 -12,0 z M 240,324 l 12,0 0,12 -12,0 z M 252,324 l 12,0 0,12 -12,0 z M 264,324 l 12,0 0,12 -12,0 z M 300,324 l 12,0 0,12 -12,0 z M 312,324 l 12,0 0,12 -12,0 z M 360,324 l 12,0 0,12 -12,0 z M 372,324 l 12,0 0,12 -12,0 z M 396,324 l 12,0 0,12 -12,0 z M 456,324 l 12,0 0,12 -12,0 z M 480,324 l 12,0 0,12 -12,0 z M 528,324 l 12,0 0,12 -12,0 z M 576,324 l 12,0 0,12 -12,0 z M 624,324 l 12,0 0,12 -12,0 z M 636,324 l 12,0 0,12 -12,0 z M 648,324 l 12,0 0,12 -12,0 z M 660,324 l 12,0 0,12 -12,0 z M 672,324 l 12,0 0,12 -12,0 z M 0,336 l 12,0 0,12 -12,0 z M 12,336 l 12,0 0,12 -12,0 z M 24,336 l 12,0 0,12 -12,0 z M 48,336 l 12,0 0,12 -12,0 z M 72,336 l 12,0 0,12 -12,0 z M 96,336 l 12,0 0,12 -12,0 z M 108,336 l 12,0 0,12 -12,0 z M 216,336 l 12,0 0,12 -12,0 z M 228,336 l 12,0 0,12 -12,0 z M 252,336 l 12,0 0,12 -12,0 z M 264,336 l 12,0 0,12 -12,0 z M 276,336 l 12,0 0,12 -12,0 z M 312,336 l 12,0 0,12 -12,0 z M 336,336 l 12,0 0,12 -12,0 z M 360,336 l 12,0 0,12 -12,0 z M 372,336 l 12,0 0,12 -12,0 z M 420,336 l 12,0 0,12 -12,0 z M 444,336 l 12,0 0,12 -12,0 z M 516,336 l 12,0 0,12 -12,0 z M 540,336 l 12,0 0,12 -12,0 z M 564,336 l 12,0 0,12 -12,0 z M 576,336 l 12,0 0,12 -12,0 z M 600,336 l 12,0 0,12 -12,0 z M 624,336 l 12,0 0,12 -12,0 z M 660,336 l 12,0 0,12 -12,0 z M 0,348 l 12,0 0,12 -12,0 z M 12,348 l 12,0 0,12 -12,0 z M 48,348 l 12,0 0,12 -12,0 z M 96,348 l 12,0 0,12 -12,0 z M 132,348 l 12,0 0,12 -12,0 z M 144,348 l 12,0 0,12 -12,0 z M 156,348 l 12,0 0,12 -12,0 z M 168,348 l 12,0 0,12 -12,0 z M 240,348 l 12,0 0,12 -12,0 z M 276,348 l 12,0 0,12 -12,0 z M 312,348 l 12,0 0,12 -12,0 z M 360,348 l 12,0 0,12 -12,0 z M 372,348 l 12,0 0,12 -12,0 z M 384,348 l 12,0 0,12 -12,0 z M 396,348 l 12,0 0,12 -12,0 z M 420,348 l 12,0 0,12 -12,0 z M 444,348 l 12,0 0,12 -12,0 z M 492,348 l 12,0 0,12 -12,0 z M 504,348 l 12,0 0,12 -12,0 z M 576,348 l 12,0 0,12 -12,0 z M 624,348 l 12,0 0,12 -12,0 z M 636,348 l 12,0 0,12 -12,0 z M 648,348 l 12,0 0,12 -12,0 z M 660,348 l 12,0 0,12 -12,0 z M 672,348 l 12,0 0,12 -12,0 z M 24,360 l 12,0 0,12 -12,0 z M 36,360 l 12,0 0,12 -12,0 z M 48,360 l 12,0 0,12 -12,0 z M 60,360 l 12,0 0,12 -12,0 z M 72,360 l 12,0 0,12 -12,0 z M 84,360 l 12,0 0,12 -12,0 z M 96,360 l 12,0 0,12 -12,0 z M 120,360 l 12,0 0,12 -12,0 z M 132,360 l 12,0 0,12 -12,0 z M 144,360 l 12,0 0,12 -12,0 z M 156,360 l 12,0 0,12 -12,0 z M 192,360 l 12,0 0,12 -12,0 z M 204,360 l 12,0 0,12 -12,0 z M 252,360 l 12,0 0,12 -12,0 z M 264,360 l 12,0 0,12 -12,0 z M 276,360 l 12,0 0,12 -12,0 z M 288,360 l 12,0 0,12 -12,0 z M 312,360 l 12,0 0,12 -12,0 z M 324,360 l 12,0 0,12 -12,0 z M 336,360 l 12,0 0,12 -12,0 z M 348,360 l 12,0 0,12 -12,0 z M 360,360 l 12,0 0,12 -12,0 z M 384,360 l 12,0 0,12 -12,0 z M 408,360 l 12,0 0,12 -12,0 z M 420,360 l 12,0 0,12 -12,0 z M 456,360 l 12,0 0,12 -12,0 z M 468,360 l 12,0 0,12 -12,0 z M 480,360 l 12,0 0,12 -12,0 z M 516,360 l 12,0 0,12 -12,0 z M 540,360 l 12,0 0,12 -12,0 z M 552,360 l 12,0 0,12 -12,0 z M 564,360 l 12,0 0,12 -12,0 z M 576,360 l 12,0 0,12 -12,0 z M 588,360 l 12,0 0,12 -12,0 z M 600,360 l 12,0 0,12 -12,0 z M 612,360 l 12,0 0,12 -12,0 z M 624,360 l 12,0 0,12 -12,0 z M 636,360 l 12,0 0,12 -12,0 z M 648,360 l 12,0 0,12 -12,0 z M 660,360 l 12,0 0,12 -12,0 z M 12,372 l 12,0 0,12 -12,0 z M 24,372 l 12,0 0,12 -12,0 z M 84,372 l 12,0 0,12 -12,0 z M 120,372 l 12,0 0,12 -12,0 z M 144,372 l 12,0 0,12 -12,0 z M 168,372 l 12,0 0,12 -12,0 z M 192,372 l 12,0 0,12 -12,0 z M 216,372 l 12,0 0,12 -12,0 z M 228,372 l 12,0 0,12 -12,0 z M 300,372 l 12,0 0,12 -12,0 z M 336,372 l 12,0 0,12 -12,0 z M 360,372 l 12,0 0,12 -12,0 z M 384,372 l 12,0 0,12 -12,0 z M 396,372 l 12,0 0,12 -12,0 z M 408,372 l 12,0 0,12 -12,0 z M 420,372 l 12,0 0,12 -12,0 z M 444,372 l 12,0 0,12 -12,0 z M 456,372 l 12,0 0,12 -12,0 z M 468,372 l 12,0 0,12 -12,0 z M 480,372 l 12,0 0,12 -12,0 z M 528,372 l 12,0 0,12 -12,0 z M 540,372 l 12,0 0,12 -12,0 z M 564,372 l 12,0 0,12 -12,0 z M 600,372 l 12,0 0,12 -12,0 z M 648,372 l 12,0 0,12 -12,0 z M 660,372 l 12,0 0,12 -12,0 z M 0,384 l 12,0 0,12 -12,0 z M 12,384 l 12,0 0,12 -12,0 z M 36,384 l 12,0 0,12 -12,0 z M 48,384 l 12,0 0,12 -12,0 z M 72,384 l 12,0 0,12 -12,0 z M 96,384 l 12,0 0,12 -12,0 z M 108,384 l 12,0 0,12 -12,0 z M 120,384 l 12,0 0,12 -12,0 z M 132,384 l 12,0 0,12 -12,0 z M 144,384 l 12,0 0,12 -12,0 z M 156,384 l 12,0 0,12 -12,0 z M 216,384 l 12,0 0,12 -12,0 z M 228,384 l 12,0 0,12 -12,0 z M 252,384 l 12,0 0,12 -12,0 z M 300,384 l 12,0 0,12 -12,0 z M 396,384 l 12,0 0,12 -12,0 z M 408,384 l 12,0 0,12 -12,0 z M 432,384 l 12,0 0,12 -12,0 z M 456,384 l 12,0 0,12 -12,0 z M 492,384 l 12,0 0,12 -12,0 z M 504,384 l 12,0 0,12 -12,0 z M 552,384 l 12,0 0,12 -12,0 z M 576,384 l 12,0 0,12 -12,0 z M 588,384 l 12,0 0,12 -12,0 z M 660,384 l 12,0 0,12 -12,0 z M 672,384 l 12,0 0,12 -12,0 z M 36,396 l 12,0 0,12 -12,0 z M 60,396 l 12,0 0,12 -12,0 z M 96,396 l 12,0 0,12 -12,0 z M 120,396 l 12,0 0,12 -12,0 z M 132,396 l 12,0 0,12 -12,0 z M 156,396 l 12,0 0,12 -12,0 z M 204,396 l 12,0 0,12 -12,0 z M 252,396 l 12,0 0,12 -12,0 z M 264,396 l 12,0 0,12 -12,0 z M 288,396 l 12,0 0,12 -12,0 z M 300,396 l 12,0 0,12 -12,0 z M 336,396 l 12,0 0,12 -12,0 z M 372,396 l 12,0 0,12 -12,0 z M 384,396 l 12,0 0,12 -12,0 z M 396,396 l 12,0 0,12 -12,0 z M 492,396 l 12,0 0,12 -12,0 z M 504,396 l 12,0 0,12 -12,0 z M 528,396 l 12,0 0,12 -12,0 z M 576,396 l 12,0 0,12 -12,0 z M 648,396 l 12,0 0,12 -12,0 z M 660,396 l 12,0 0,12 -12,0 z M 672,396 l 12,0 0,12 -12,0 z M 24,408 l 12,0 0,12 -12,0 z M 36,408 l 12,0 0,12 -12,0 z M 48,408 l 12,0 0,12 -12,0 z M 60,408 l 12,0 0,12 -12,0 z M 72,408 l 12,0 0,12 -12,0 z M 96,408 l 12,0 0,12 -12,0 z M 108,408 l 12,0 0,12 -12,0 z M 144,408 l 12,0 0,12 -12,0 z M 156,408 l 12,0 0,12 -12,0 z M 180,408 l 12,0 0,12 -12,0 z M 192,408 l 12,0 0,12 -12,0 z M 204,408 l 12,0 0,12 -12,0 z M 216,408 l 12,0 0,12 -12,0 z M 240,408 l 12,0 0,12 -12,0 z M 252,408 l 12,0 0,12 -12,0 z M 264,408 l 12,0 0,12 -12,0 z M 276,408 l 12,0 0,12 -12,0 z M 288,408 l 12,0 0,12 -12,0 z M 300,408 l 12,0 0,12 -12,0 z M 312,408 l 12,0 0,12 -12,0 z M 324,408 l 12,0 0,12 -12,0 z M 360,408 l 12,0 0,12 -12,0 z M 372,408 l 12,0 0,12 -12,0 z M 384,408 l 12,0 0,12 -12,0 z M 396,408 l 12,0 0,12 -12,0 z M 420,408 l 12,0 0,12 -12,0 z M 444,408 l 12,0 0,12 -12,0 z M 456,408 l 12,0 0,12 -12,0 z M 468,408 l 12,0 0,12 -12,0 z M 480,408 l 12,0 0,12 -12,0 z M 540,408 l 12,0 0,12 -12,0 z M 552,408 l 12,0 0,12 -12,0 z M 576,408 l 12,0 0,12 -12,0 z M 588,408 l 12,0 0,12 -12,0 z M 636,408 l 12,0 0,12 -12,0 z M 660,408 l 12,0 0,12 -12,0 z M 36,420 l 12,0 0,12 -12,0 z M 96,420 l 12,0 0,12 -12,0 z M 108,420 l 12,0 0,12 -12,0 z M 120,420 l 12,0 0,12 -12,0 z M 132,420 l 12,0 0,12 -12,0 z M 168,420 l 12,0 0,12 -12,0 z M 180,420 l 12,0 0,12 -12,0 z M 264,420 l 12,0 0,12 -12,0 z M 300,420 l 12,0 0,12 -12,0 z M 312,420 l 12,0 0,12 -12,0 z M 336,420 l 12,0 0,12 -12,0 z M 372,420 l 12,0 0,12 -12,0 z M 384,420 l 12,0 0,12 -12,0 z M 408,420 l 12,0 0,12 -12,0 z M 432,420 l 12,0 0,12 -12,0 z M 456,420 l 12,0 0,12 -12,0 z M 480,420 l 12,0 0,12 -12,0 z M 492,420 l 12,0 0,12 -12,0 z M 528,420 l 12,0 0,12 -12,0 z M 552,420 l 12,0 0,12 -12,0 z M 600,420 l 12,0 0,12 -12,0 z M 624,420 l 12,0 0,12 -12,0 z M 636,420 l 12,0 0,12 -12,0 z M 648,420 l 12,0 0,12 -12,0 z M 672,420 l 12,0 0,12 -12,0 z M 12,432 l 12,0 0,12 -12,0 z M 24,432 l 12,0 0,12 -12,0 z M 36,432 l 12,0 0,12 -12,0 z M 48,432 l 12,0 0,12 -12,0 z M 60,432 l 12,0 0,12 -12,0 z M 72,432 l 12,0 0,12 -12,0 z M 84,432 l 12,0 0,12 -12,0 z M 96,432 l 12,0 0,12 -12,0 z M 108,432 l 12,0 0,12 -12,0 z M 120,432 l 12,0 0,12 -12,0 z M 132,432 l 12,0 0,12 -12,0 z M 144,432 l 12,0 0,12 -12,0 z M 156,432 l 12,0 0,12 -12,0 z M 168,432 l 12,0 0,12 -12,0 z M 204,432 l 12,0 0,12 -12,0 z M 240,432 l 12,0 0,12 -12,0 z M 264,432 l 12,0 0,12 -12,0 z M 276,432 l 12,0 0,12 -12,0 z M 300,432 l 12,0 0,12 -12,0 z M 324,432 l 12,0 0,12 -12,0 z M 372,432 l 12,0 0,12 -12,0 z M 384,432 l 12,0 0,12 -12,0 z M 408,432 l 12,0 0,12 -12,0 z M 420,432 l 12,0 0,12 -12,0 z M 444,432 l 12,0 0,12 -12,0 z M 492,432 l 12,0 0,12 -12,0 z M 540,432 l 12,0 0,12 -12,0 z M 564,432 l 12,0 0,12 -12,0 z M 576,432 l 12,0 0,12 -12,0 z M 612,432 l 12,0 0,12 -12,0 z M 624,432 l 12,0 0,12 -12,0 z M 660,432 l 12,0 0,12 -12,0 z M 672,432 l 12,0 0,12 -12,0 z M 12,444 l 12,0 0,12 -12,0 z M 24,444 l 12,0 0,12 -12,0 z M 48,444 l 12,0 0,12 -12,0 z M 144,444 l 12,0 0,12 -12,0 z M 156,444 l 12,0 0,12 -12,0 z M 180,444 l 12,0 0,12 -12,0 z M 192,444 l 12,0 0,12 -12,0 z M 204,444 l 12,0 0,12 -12,0 z M 252,444 l 12,0 0,12 -12,0 z M 276,444 l 12,0 0,12 -12,0 z M 288,444 l 12,0 0,12 -12,0 z M 312,444 l 12,0 0,12 -12,0 z M 324,444 l 12,0 0,12 -12,0 z M 360,444 l 12,0 0,12 -12,0 z M 372,444 l 12,0 0,12 -12,0 z M 432,444 l 12,0 0,12 -12,0 z M 444,444 l 12,0 0,12 -12,0 z M 468,444 l 12,0 0,12 -12,0 z M 492,444 l 12,0 0,12 -12,0 z M 504,444 l 12,0 0,12 -12,0 z M 516,444 l 12,0 0,12 -12,0 z M 528,444 l 12,0 0,12 -12,0 z M 564,444 l 12,0 0,12 -12,0 z M 588,444 l 12,0 0,12 -12,0 z M 636,444 l 12,0 0,12 -12,0 z M 648,444 l 12,0 0,12 -12,0 z M 660,444 l 12,0 0,12 -12,0 z M 672,444 l 12,0 0,12 -12,0 z M 36,456 l 12,0 0,12 -12,0 z M 72,456 l 12,0 0,12 -12,0 z M 84,456 l 12,0 0,12 -12,0 z M 96,456 l 12,0 0,12 -12,0 z M 120,456 l 12,0 0,12 -12,0 z M 132,456 l 12,0 0,12 -12,0 z M 156,456 l 12,0 0,12 -12,0 z M 228,456 l 12,0 0,12 -12,0 z M 252,456 l 12,0 0,12 -12,0 z M 288,456 l 12,0 0,12 -12,0 z M 300,456 l 12,0 0,12 -12,0 z M 312,456 l 12,0 0,12 -12,0 z M 324,456 l 12,0 0,12 -12,0 z M 384,456 l 12,0 0,12 -12,0 z M 420,456 l 12,0 0,12 -12,0 z M 432,456 l 12,0 0,12 -12,0 z M 456,456 l 12,0 0,12 -12,0 z M 468,456 l 12,0 0,12 -12,0 z M 516,456 l 12,0 0,12 -12,0 z M 528,456 l 12,0 0,12 -12,0 z M 540,456 l 12,0 0,12 -12,0 z M 552,456 l 12,0 0,12 -12,0 z M 564,456 l 12,0 0,12 -12,0 z M 576,456 l 12,0 0,12 -12,0 z M 612,456 l 12,0 0,12 -12,0 z M 636,456 l 12,0 0,12 -12,0 z M 648,456 l 12,0 0,12 -12,0 z M 660,456 l 12,0 0,12 -12,0 z M 48,468 l 12,0 0,12 -12,0 z M 120,468 l 12,0 0,12 -12,0 z M 132,468 l 12,0 0,12 -12,0 z M 180,468 l 12,0 0,12 -12,0 z M 192,468 l 12,0 0,12 -12,0 z M 216,468 l 12,0 0,12 -12,0 z M 264,468 l 12,0 0,12 -12,0 z M 288,468 l 12,0 0,12 -12,0 z M 324,468 l 12,0 0,12 -12,0 z M 348,468 l 12,0 0,12 -12,0 z M 360,468 l 12,0 0,12 -12,0 z M 372,468 l 12,0 0,12 -12,0 z M 396,468 l 12,0 0,12 -12,0 z M 408,468 l 12,0 0,12 -12,0 z M 432,468 l 12,0 0,12 -12,0 z M 480,468 l 12,0 0,12 -12,0 z M 492,468 l 12,0 0,12 -12,0 z M 504,468 l 12,0 0,12 -12,0 z M 516,468 l 12,0 0,12 -12,0 z M 552,468 l 12,0 0,12 -12,0 z M 564,468 l 12,0 0,12 -12,0 z M 588,468 l 12,0 0,12 -12,0 z M 636,468 l 12,0 0,12 -12,0 z M 648,468 l 12,0 0,12 -12,0 z M 672,468 l 12,0 0,12 -12,0 z M 12,480 l 12,0 0,12 -12,0 z M 24,480 l 12,0 0,12 -12,0 z M 36,480 l 12,0 0,12 -12,0 z M 60,480 l 12,0 0,12 -12,0 z M 72,480 l 12,0 0,12 -12,0 z M 144,480 l 12,0 0,12 -12,0 z M 156,480 l 12,0 0,12 -12,0 z M 168,480 l 12,0 0,12 -12,0 z M 180,480 l 12,0 0,12 -12,0 z M 192,480 l 12,0 0,12 -12,0 z M 216,480 l 12,0 0,12 -12,0 z M 252,480 l 12,0 0,12 -12,0 z M 264,480 l 12,0 0,12 -12,0 z M 276,480 l 12,0 0,12 -12,0 z M 312,480 l 12,0 0,12 -12,0 z M 336,480 l 12,0 0,12 -12,0 z M 360,480 l 12,0 0,12 -12,0 z M 420,480 l 12,0 0,12 -12,0 z M 432,480 l 12,0 0,12 -12,0 z M 444,480 l 12,0 0,12 -12,0 z M 492,480 l 12,0 0,12 -12,0 z M 504,480 l 12,0 0,12 -12,0 z M 540,480 l 12,0 0,12 -12,0 z M 552,480 l 12,0 0,12 -12,0 z M 576,480 l 12,0 0,12 -12,0 z M 588,480 l 12,0 0,12 -12,0 z M 612,480 l 12,0 0,12 -12,0 z M 624,480 l 12,0 0,12 -12,0 z M 636,480 l 12,0 0,12 -12,0 z M 660,480 l 12,0 0,12 -12,0 z M 0,492 l 12,0 0,12 -12,0 z M 12,492 l 12,0 0,12 -12,0 z M 36,492 l 12,0 0,12 -12,0 z M 60,492 l 12,0 0,12 -12,0 z M 132,492 l 12,0 0,12 -12,0 z M 144,492 l 12,0 0,12 -12,0 z M 168,492 l 12,0 0,12 -12,0 z M 204,492 l 12,0 0,12 -12,0 z M 216,492 l 12,0 0,12 -12,0 z M 264,492 l 12,0 0,12 -12,0 z M 276,492 l 12,0 0,12 -12,0 z M 288,492 l 12,0 0,12 -12,0 z M 300,492 l 12,0 0,12 -12,0 z M 324,492 l 12,0 0,12 -12,0 z M 360,492 l 12,0 0,12 -12,0 z M 384,492 l 12,0 0,12 -12,0 z M 408,492 l 12,0 0,12 -12,0 z M 432,492 l 12,0 0,12 -12,0 z M 504,492 l 12,0 0,12 -12,0 z M 516,492 l 12,0 0,12 -12,0 z M 552,492 l 12,0 0,12 -12,0 z M 564,492 l 12,0 0,12 -12,0 z M 636,492 l 12,0 0,12 -12,0 z M 648,492 l 12,0 0,12 -12,0 z M 660,492 l 12,0 0,12 -12,0 z M 672,492 l 12,0 0,12 -12,0 z M 0,504 l 12,0 0,12 -12,0 z M 12,504 l 12,0 0,12 -12,0 z M 24,504 l 12,0 0,12 -12,0 z M 48,504 l 12,0 0,12 -12,0 z M 60,504 l 12,0 0,12 -12,0 z M 72,504 l 12,0 0,12 -12,0 z M 84,504 l 12,0 0,12 -12,0 z M 108,504 l 12,0 0,12 -12,0 z M 120,504 l 12,0 0,12 -12,0 z M 132,504 l 12,0 0,12 -12,0 z M 144,504 l 12,0 0,12 -12,0 z M 168,504 l 12,0 0,12 -12,0 z M 180,504 l 12,0 0,12 -12,0 z M 192,504 l 12,0 0,12 -12,0 z M 216,504 l 12,0 0,12 -12,0 z M 276,504 l 12,0 0,12 -12,0 z M 288,504 l 12,0 0,12 -12,0 z M 312,504 l 12,0 0,12 -12,0 z M 336,504 l 12,0 0,12 -12,0 z M 384,504 l 12,0 0,12 -12,0 z M 396,504 l 12,0 0,12 -12,0 z M 444,504 l 12,0 0,12 -12,0 z M 480,504 l 12,0 0,12 -12,0 z M 492,504 l 12,0 0,12 -12,0 z M 540,504 l 12,0 0,12 -12,0 z M 588,504 l 12,0 0,12 -12,0 z M 612,504 l 12,0 0,12 -12,0 z M 648,504 l 12,0 0,12 -12,0 z M 0,516 l 12,0 0,12 -12,0 z M 12,516 l 12,0 0,12 -12,0 z M 36,516 l 12,0 0,12 -12,0 z M 48,516 l 12,0 0,12 -12,0 z M 96,516 l 12,0 0,12 -12,0 z M 108,516 l 12,0 0,12 -12,0 z M 132,516 l 12,0 0,12 -12,0 z M 144,516 l 12,0 0,12 -12,0 z M 180,516 l 12,0 0,12 -12,0 z M 192,516 l 12,0 0,12 -12,0 z M 228,516 l 12,0 0,12 -12,0 z M 240,516 l 12,0 0,12 -12,0 z M 252,516 l 12,0 0,12 -12,0 z M 264,516 l 12,0 0,12 -12,0 z M 276,516 l 12,0 0,12 -12,0 z M 288,516 l 12,0 0,12 -12,0 z M 300,516 l 12,0 0,12 -12,0 z M 312,516 l 12,0 0,12 -12,0 z M 360,516 l 12,0 0,12 -12,0 z M 372,516 l 12,0 0,12 -12,0 z M 396,516 l 12,0 0,12 -12,0 z M 408,516 l 12,0 0,12 -12,0 z M 420,516 l 12,0 0,12 -12,0 z M 432,516 l 12,0 0,12 -12,0 z M 444,516 l 12,0 0,12 -12,0 z M 456,516 l 12,0 0,12 -12,0 z M 468,516 l 12,0 0,12 -12,0 z M 480,516 l 12,0 0,12 -12,0 z M 492,516 l 12,0 0,12 -12,0 z M 528,516 l 12,0 0,12 -12,0 z M 540,516 l 12,0 0,12 -12,0 z M 552,516 l 12,0 0,12 -12,0 z M 588,516 l 12,0 0,12 -12,0 z M 600,516 l 12,0 0,12 -12,0 z M 612,516 l 12,0 0,12 -12,0 z M 624,516 l 12,0 0,12 -12,0 z M 636,516 l 12,0 0,12 -12,0 z M 648,516 l 12,0 0,12 -12,0 z M 660,516 l 12,0 0,12 -12,0 z M 672,516 l 12,0 0,12 -12,0 z M 24,528 l 12,0 0,12 -12,0 z M 36,528 l 12,0 0,12 -12,0 z M 60,528 l 12,0 0,12 -12,0 z M 72,528 l 12,0 0,12 -12,0 z M 96,528 l 12,0 0,12 -12,0 z M 108,528 l 12,0 0,12 -12,0 z M 120,528 l 12,0 0,12 -12,0 z M 144,528 l 12,0 0,12 -12,0 z M 168,528 l 12,0 0,12 -12,0 z M 180,528 l 12,0 0,12 -12,0 z M 192,528 l 12,0 0,12 -12,0 z M 204,528 l 12,0 0,12 -12,0 z M 228,528 l 12,0 0,12 -12,0 z M 240,528 l 12,0 0,12 -12,0 z M 252,528 l 12,0 0,12 -12,0 z M 300,528 l 12,0 0,12 -12,0 z M 348,528 l 12,0 0,12 -12,0 z M 360,528 l 12,0 0,12 -12,0 z M 372,528 l 12,0 0,12 -12,0 z M 396,528 l 12,0 0,12 -12,0 z M 408,528 l 12,0 0,12 -12,0 z M 420,528 l 12,0 0,12 -12,0 z M 432,528 l 12,0 0,12 -12,0 z M 456,528 l 12,0 0,12 -12,0 z M 492,528 l 12,0 0,12 -12,0 z M 504,528 l 12,0 0,12 -12,0 z M 516,528 l 12,0 0,12 -12,0 z M 540,528 l 12,0 0,12 -12,0 z M 552,528 l 12,0 0,12 -12,0 z M 600,528 l 12,0 0,12 -12,0 z M 612,528 l 12,0 0,12 -12,0 z M 624,528 l 12,0 0,12 -12,0 z M 660,528 l 12,0 0,12 -12,0 z M 672,528 l 12,0 0,12 -12,0 z M 12,540 l 12,0 0,12 -12,0 z M 48,540 l 12,0 0,12 -12,0 z M 84,540 l 12,0 0,12 -12,0 z M 96,540 l 12,0 0,12 -12,0 z M 108,540 l 12,0 0,12 -12,0 z M 120,540 l 12,0 0,12 -12,0 z M 144,540 l 12,0 0,12 -12,0 z M 156,540 l 12,0 0,12 -12,0 z M 168,540 l 12,0 0,12 -12,0 z M 180,540 l 12,0 0,12 -12,0 z M 192,540 l 12,0 0,12 -12,0 z M 204,540 l 12,0 0,12 -12,0 z M 228,540 l 12,0 0,12 -12,0 z M 276,540 l 12,0 0,12 -12,0 z M 288,540 l 12,0 0,12 -12,0 z M 348,540 l 12,0 0,12 -12,0 z M 360,540 l 12,0 0,12 -12,0 z M 396,540 l 12,0 0,12 -12,0 z M 420,540 l 12,0 0,12 -12,0 z M 432,540 l 12,0 0,12 -12,0 z M 444,540 l 12,0 0,12 -12,0 z M 468,540 l 12,0 0,12 -12,0 z M 492,540 l 12,0 0,12 -12,0 z M 504,540 l 12,0 0,12 -12,0 z M 516,540 l 12,0 0,12 -12,0 z M 540,540 l 12,0 0,12 -12,0 z M 588,540 l 12,0 0,12 -12,0 z M 636,540 l 12,0 0,12 -12,0 z M 648,540 l 12,0 0,12 -12,0 z M 660,540 l 12,0 0,12 -12,0 z M 672,540 l 12,0 0,12 -12,0 z M 0,552 l 12,0 0,12 -12,0 z M 24,552 l 12,0 0,12 -12,0 z M 60,552 l 12,0 0,12 -12,0 z M 72,552 l 12,0 0,12 -12,0 z M 84,552 l 12,0 0,12 -12,0 z M 96,552 l 12,0 0,12 -12,0 z M 120,552 l 12,0 0,12 -12,0 z M 132,552 l 12,0 0,12 -12,0 z M 144,552 l 12,0 0,12 -12,0 z M 156,552 l 12,0 0,12 -12,0 z M 168,552 l 12,0 0,12 -12,0 z M 192,552 l 12,0 0,12 -12,0 z M 228,552 l 12,0 0,12 -12,0 z M 252,552 l 12,0 0,12 -12,0 z M 276,552 l 12,0 0,12 -12,0 z M 336,552 l 12,0 0,12 -12,0 z M 408,552 l 12,0 0,12 -12,0 z M 420,552 l 12,0 0,12 -12,0 z M 456,552 l 12,0 0,12 -12,0 z M 480,552 l 12,0 0,12 -12,0 z M 492,552 l 12,0 0,12 -12,0 z M 528,552 l 12,0 0,12 -12,0 z M 540,552 l 12,0 0,12 -12,0 z M 552,552 l 12,0 0,12 -12,0 z M 564,552 l 12,0 0,12 -12,0 z M 576,552 l 12,0 0,12 -12,0 z M 588,552 l 12,0 0,12 -12,0 z M 612,552 l 12,0 0,12 -12,0 z M 624,552 l 12,0 0,12 -12,0 z M 660,552 l 12,0 0,12 -12,0 z M 0,564 l 12,0 0,12 -12,0 z M 12,564 l 12,0 0,12 -12,0 z M 24,564 l 12,0 0,12 -12,0 z M 36,564 l 12,0 0,12 -12,0 z M 48,564 l 12,0 0,12 -12,0 z M 84,564 l 12,0 0,12 -12,0 z M 108,564 l 12,0 0,12 -12,0 z M 132,564 l 12,0 0,12 -12,0 z M 144,564 l 12,0 0,12 -12,0 z M 192,564 l 12,0 0,12 -12,0 z M 204,564 l 12,0 0,12 -12,0 z M 228,564 l 12,0 0,12 -12,0 z M 240,564 l 12,0 0,12 -12,0 z M 252,564 l 12,0 0,12 -12,0 z M 264,564 l 12,0 0,12 -12,0 z M 276,564 l 12,0 0,12 -12,0 z M 300,564 l 12,0 0,12 -12,0 z M 348,564 l 12,0 0,12 -12,0 z M 360,564 l 12,0 0,12 -12,0 z M 372,564 l 12,0 0,12 -12,0 z M 408,564 l 12,0 0,12 -12,0 z M 420,564 l 12,0 0,12 -12,0 z M 444,564 l 12,0 0,12 -12,0 z M 456,564 l 12,0 0,12 -12,0 z M 468,564 l 12,0 0,12 -12,0 z M 480,564 l 12,0 0,12 -12,0 z M 504,564 l 12,0 0,12 -12,0 z M 528,564 l 12,0 0,12 -12,0 z M 564,564 l 12,0 0,12 -12,0 z M 588,564 l 12,0 0,12 -12,0 z M 600,564 l 12,0 0,12 -12,0 z M 624,564 l 12,0 0,12 -12,0 z M 636,564 l 12,0 0,12 -12,0 z M 648,564 l 12,0 0,12 -12,0 z M 660,564 l 12,0 0,12 -12,0 z M 72,576 l 12,0 0,12 -12,0 z M 96,576 l 12,0 0,12 -12,0 z M 180,576 l 12,0 0,12 -12,0 z M 192,576 l 12,0 0,12 -12,0 z M 216,576 l 12,0 0,12 -12,0 z M 240,576 l 12,0 0,12 -12,0 z M 252,576 l 12,0 0,12 -12,0 z M 276,576 l 12,0 0,12 -12,0 z M 288,576 l 12,0 0,12 -12,0 z M 300,576 l 12,0 0,12 -12,0 z M 312,576 l 12,0 0,12 -12,0 z M 324,576 l 12,0 0,12 -12,0 z M 336,576 l 12,0 0,12 -12,0 z M 348,576 l 12,0 0,12 -12,0 z M 360,576 l 12,0 0,12 -12,0 z M 372,576 l 12,0 0,12 -12,0 z M 396,576 l 12,0 0,12 -12,0 z M 420,576 l 12,0 0,12 -12,0 z M 432,576 l 12,0 0,12 -12,0 z M 456,576 l 12,0 0,12 -12,0 z M 468,576 l 12,0 0,12 -12,0 z M 492,576 l 12,0 0,12 -12,0 z M 504,576 l 12,0 0,12 -12,0 z M 516,576 l 12,0 0,12 -12,0 z M 576,576 l 12,0 0,12 -12,0 z M 588,576 l 12,0 0,12 -12,0 z M 600,576 l 12,0 0,12 -12,0 z M 612,576 l 12,0 0,12 -12,0 z M 624,576 l 12,0 0,12 -12,0 z M 636,576 l 12,0 0,12 -12,0 z M 96,588 l 12,0 0,12 -12,0 z M 108,588 l 12,0 0,12 -12,0 z M 132,588 l 12,0 0,12 -12,0 z M 180,588 l 12,0 0,12 -12,0 z M 192,588 l 12,0 0,12 -12,0 z M 204,588 l 12,0 0,12 -12,0 z M 216,588 l 12,0 0,12 -12,0 z M 276,588 l 12,0 0,12 -12,0 z M 288,588 l 12,0 0,12 -12,0 z M 300,588 l 12,0 0,12 -12,0 z M 312,588 l 12,0 0,12 -12,0 z M 360,588 l 12,0 0,12 -12,0 z M 372,588 l 12,0 0,12 -12,0 z M 384,588 l 12,0 0,12 -12,0 z M 396,588 l 12,0 0,12 -12,0 z M 444,588 l 12,0 0,12 -12,0 z M 456,588 l 12,0 0,12 -12,0 z M 480,588 l 12,0 0,12 -12,0 z M 492,588 l 12,0 0,12 -12,0 z M 504,588 l 12,0 0,12 -12,0 z M 516,588 l 12,0 0,12 -12,0 z M 564,588 l 12,0 0,12 -12,0 z M 576,588 l 12,0 0,12 -12,0 z M 624,588 l 12,0 0,12 -12,0 z M 636,588 l 12,0 0,12 -12,0 z M 672,588 l 12,0 0,12 -12,0 z M 0,600 l 12,0 0,12 -12,0 z M 12,600 l 12,0 0,12 -12,0 z M 24,600 l 12,0 0,12 -12,0 z M 36,600 l 12,0 0,12 -12,0 z M 48,600 l 12,0 0,12 -12,0 z M 60,600 l 12,0 0,12 -12,0 z M 72,600 l 12,0 0,12 -12,0 z M 108,600 l 12,0 0,12 -12,0 z M 120,600 l 12,0 0,12 -12,0 z M 132,600 l 12,0 0,12 -12,0 z M 156,600 l 12,0 0,12 -12,0 z M 168,600 l 12,0 0,12 -12,0 z M 180,600 l 12,0 0,12 -12,0 z M 240,600 l 12,0 0,12 -12,0 z M 288,600 l 12,0 0,12 -12,0 z M 300,600 l 12,0 0,12 -12,0 z M 312,600 l 12,0 0,12 -12,0 z M 336,600 l 12,0 0,12 -12,0 z M 360,600 l 12,0 0,12 -12,0 z M 408,600 l 12,0 0,12 -12,0 z M 420,600 l 12,0 0,12 -12,0 z M 432,600 l 12,0 0,12 -12,0 z M 480,600 l 12,0 0,12 -12,0 z M 540,600 l 12,0 0,12 -12,0 z M 552,600 l 12,0 0,12 -12,0 z M 576,600 l 12,0 0,12 -12,0 z M 600,600 l 12,0 0,12 -12,0 z M 624,600 l 12,0 0,12 -12,0 z M 636,600 l 12,0 0,12 -12,0 z M 660,600 l 12,0 0,12 -12,0 z M 0,612 l 12,0 0,12 -12,0 z M 72,612 l 12,0 0,12 -12,0 z M 108,612 l 12,0 0,12 -12,0 z M 120,612 l 12,0 0,12 -12,0 z M 132,612 l 12,0 0,12 -12,0 z M 144,612 l 12,0 0,12 -12,0 z M 180,612 l 12,0 0,12 -12,0 z M 192,612 l 12,0 0,12 -12,0 z M 204,612 l 12,0 0,12 -12,0 z M 216,612 l 12,0 0,12 -12,0 z M 228,612 l 12,0 0,12 -12,0 z M 240,612 l 12,0 0,12 -12,0 z M 252,612 l 12,0 0,12 -12,0 z M 300,612 l 12,0 0,12 -12,0 z M 312,612 l 12,0 0,12 -12,0 z M 360,612 l 12,0 0,12 -12,0 z M 396,612 l 12,0 0,12 -12,0 z M 420,612 l 12,0 0,12 -12,0 z M 444,612 l 12,0 0,12 -12,0 z M 456,612 l 12,0 0,12 -12,0 z M 468,612 l 12,0 0,12 -12,0 z M 480,612 l 12,0 0,12 -12,0 z M 516,612 l 12,0 0,12 -12,0 z M 528,612 l 12,0 0,12 -12,0 z M 540,612 l 12,0 0,12 -12,0 z M 564,612 l 12,0 0,12 -12,0 z M 576,612 l 12,0 0,12 -12,0 z M 624,612 l 12,0 0,12 -12,0 z M 636,612 l 12,0 0,12 -12,0 z M 648,612 l 12,0 0,12 -12,0 z M 660,612 l 12,0 0,12 -12,0 z M 0,624 l 12,0 0,12 -12,0 z M 24,624 l 12,0 0,12 -12,0 z M 36,624 l 12,0 0,12 -12,0 z M 48,624 l 12,0 0,12 -12,0 z M 72,624 l 12,0 0,12 -12,0 z M 96,624 l 12,0 0,12 -12,0 z M 120,624 l 12,0 0,12 -12,0 z M 156,624 l 12,0 0,12 -12,0 z M 180,624 l 12,0 0,12 -12,0 z M 204,624 l 12,0 0,12 -12,0 z M 216,624 l 12,0 0,12 -12,0 z M 252,624 l 12,0 0,12 -12,0 z M 300,624 l 12,0 0,12 -12,0 z M 312,624 l 12,0 0,12 -12,0 z M 324,624 l 12,0 0,12 -12,0 z M 336,624 l 12,0 0,12 -12,0 z M 348,624 l 12,0 0,12 -12,0 z M 360,624 l 12,0 0,12 -12,0 z M 372,624 l 12,0 0,12 -12,0 z M 384,624 l 12,0 0,12 -12,0 z M 396,624 l 12,0 0,12 -12,0 z M 420,624 l 12,0 0,12 -12,0 z M 444,624 l 12,0 0,12 -12,0 z M 456,624 l 12,0 0,12 -12,0 z M 504,624 l 12,0 0,12 -12,0 z M 516,624 l 12,0 0,12 -12,0 z M 540,624 l 12,0 0,12 -12,0 z M 552,624 l 12,0 0,12 -12,0 z M 564,624 l 12,0 0,12 -12,0 z M 576,624 l 12,0 0,12 -12,0 z M 588,624 l 12,0 0,12 -12,0 z M 600,624 l 12,0 0,12 -12,0 z M 612,624 l 12,0 0,12 -12,0 z M 624,624 l 12,0 0,12 -12,0 z M 636,624 l 12,0 0,12 -12,0 z M 0,636 l 12,0 0,12 -12,0 z M 24,636 l 12,0 0,12 -12,0 z M 36,636 l 12,0 0,12 -12,0 z M 48,636 l 12,0 0,12 -12,0 z M 72,636 l 12,0 0,12 -12,0 z M 96,636 l 12,0 0,12 -12,0 z M 120,636 l 12,0 0,12 -12,0 z M 132,636 l 12,0 0,12 -12,0 z M 144,636 l 12,0 0,12 -12,0 z M 180,636 l 12,0 0,12 -12,0 z M 192,636 l 12,0 0,12 -12,0 z M 228,636 l 12,0 0,12 -12,0 z M 276,636 l 12,0 0,12 -12,0 z M 288,636 l 12,0 0,12 -12,0 z M 300,636 l 12,0 0,12 -12,0 z M 336,636 l 12,0 0,12 -12,0 z M 372,636 l 12,0 0,12 -12,0 z M 396,636 l 12,0 0,12 -12,0 z M 420,636 l 12,0 0,12 -12,0 z M 492,636 l 12,0 0,12 -12,0 z M 504,636 l 12,0 0,12 -12,0 z M 516,636 l 12,0 0,12 -12,0 z M 564,636 l 12,0 0,12 -12,0 z M 588,636 l 12,0 0,12 -12,0 z M 600,636 l 12,0 0,12 -12,0 z M 624,636 l 12,0 0,12 -12,0 z M 648,636 l 12,0 0,12 -12,0 z M 0,648 l 12,0 0,12 -12,0 z M 24,648 l 12,0 0,12 -12,0 z M 36,648 l 12,0 0,12 -12,0 z M 48,648 l 12,0 0,12 -12,0 z M 72,648 l 12,0 0,12 -12,0 z M 96,648 l 12,0 0,12 -12,0 z M 108,648 l 12,0 0,12 -12,0 z M 120,648 l 12,0 0,12 -12,0 z M 144,648 l 12,0 0,12 -12,0 z M 180,648 l 12,0 0,12 -12,0 z M 192,648 l 12,0 0,12 -12,0 z M 264,648 l 12,0 0,12 -12,0 z M 288,648 l 12,0 0,12 -12,0 z M 300,648 l 12,0 0,12 -12,0 z M 360,648 l 12,0 0,12 -12,0 z M 432,648 l 12,0 0,12 -12,0 z M 444,648 l 12,0 0,12 -12,0 z M 456,648 l 12,0 0,12 -12,0 z M 528,648 l 12,0 0,12 -12,0 z M 552,648 l 12,0 0,12 -12,0 z M 564,648 l 12,0 0,12 -12,0 z M 576,648 l 12,0 0,12 -12,0 z M 588,648 l 12,0 0,12 -12,0 z M 636,648 l 12,0 0,12 -12,0 z M 648,648 l 12,0 0,12 -12,0 z M 0,660 l 12,0 0,12 -12,0 z M 72,660 l 12,0 0,12 -12,0 z M 108,660 l 12,0 0,12 -12,0 z M 120,660 l 12,0 0,12 -12,0 z M 168,660 l 12,0 0,12 -12,0 z M 180,660 l 12,0 0,12 -12,0 z M 228,660 l 12,0 0,12 -12,0 z M 240,660 l 12,0 0,12 -12,0 z M 264,660 l 12,0 0,12 -12,0 z M 300,660 l 12,0 0,12 -12,0 z M 336,660 l 12,0 0,12 -12,0 z M 348,660 l 12,0 0,12 -12,0 z M 360,660 l 12,0 0,12 -12,0 z M 384,660 l 12,0 0,12 -12,0 z M 408,660 l 12,0 0,12 -12,0 z M 420,660 l 12,0 0,12 -12,0 z M 432,660 l 12,0 0,12 -12,0 z M 456,660 l 12,0 0,12 -12,0 z M 468,660 l 12,0 0,12 -12,0 z M 492,660 l 12,0 0,12 -12,0 z M 516,660 l 12,0 0,12 -12,0 z M 528,660 l 12,0 0,12 -12,0 z M 564,660 l 12,0 0,12 -12,0 z M 588,660 l 12,0 0,12 -12,0 z M 612,660 l 12,0 0,12 -12,0 z M 648,660 l 12,0 0,12 -12,0 z M 0,672 l 12,0 0,12 -12,0 z M 12,672 l 12,0 0,12 -12,0 z M 24,672 l 12,0 0,12 -12,0 z M 36,672 l 12,0 0,12 -12,0 z M 48,672 l 12,0 0,12 -12,0 z M 60,672 l 12,0 0,12 -12,0 z M 72,672 l 12,0 0,12 -12,0 z M 108,672 l 12,0 0,12 -12,0 z M 120,672 l 12,0 0,12 -12,0 z M 132,672 l 12,0 0,12 -12,0 z M 192,672 l 12,0 0,12 -12,0 z M 216,672 l 12,0 0,12 -12,0 z M 228,672 l 12,0 0,12 -12,0 z M 240,672 l 12,0 0,12 -12,0 z M 300,672 l 12,0 0,12 -12,0 z M 336,672 l 12,0 0,12 -12,0 z M 348,672 l 12,0 0,12 -12,0 z M 372,672 l 12,0 0,12 -12,0 z M 408,672 l 12,0 0,12 -12,0 z M 420,672 l 12,0 0,12 -12,0 z M 456,672 l 12,0 0,12 -12,0 z M 480,672 l 12,0 0,12 -12,0 z M 516,672 l 12,0 0,12 -12,0 z M 564,672 l 12,0 0,12 -12,0 z M 588,672 l 12,0 0,12 -12,0 z M 600,672 l 12,0 0,12 -12,0 z M 612,672 l 12,0 0,12 -12,0 z M 624,672 l 12,0 0,12 -12,0 z M 636,672 l 12,0 0,12 -12,0 z M 648,672 l 12,0 0,12 -12,0 z M 660,672 l 12,0 0,12 -12,0 z " />
	</g>
</svg>
